<svg id="Layer_1" data-name="Layer 1" xmlns="http://www.w3.org/2000/svg" viewBox="0 0 163.49 158.88">
  <defs>
    <style>
      .cls-1, .cls-2 {
        fill: #fff;
      }

      .cls-2 {
        stroke: #fff;
        stroke-miterlimit: 10;
      }
    </style>
  </defs>
  <title>Untitled-1</title>
  <g>
    <path class="cls-1" d="M696.48,312.57a15,15,0,0,1-3.21,10.51c4-9.25-1.07-14.38-2.3-18.23-2.11-7.42,2.35-10.52,2.35-10.52-.07.18-1.78,2.62-.67,7.72C693.14,304.33,696.3,309.17,696.48,312.57Z" transform="translate(-601.1 -280.32)"/>
    <path class="cls-1" d="M685.3,306.91a14.47,14.47,0,0,1,1.16,7.67,13.72,13.72,0,0,1-4,8.49,17.21,17.21,0,0,0,2.31-8.61,13.36,13.36,0,0,0-1.67-6.5c-1.06-2.05-6.4-9.18-7.63-11.46a15.52,15.52,0,0,1-2.09-7.44,12.26,12.26,0,0,1,3.35-8.75,12.57,12.57,0,0,0-1.63,8.67,14.69,14.69,0,0,0,2.5,6.27C678.85,297.24,684.27,304.48,685.3,306.91Z" transform="translate(-601.1 -280.32)"/>
    <path class="cls-1" d="M676,313.27a15.48,15.48,0,0,1-4.2,9.81,26.19,26.19,0,0,0,1.85-5.48c1-4.72.31-8.11-2.62-9.26a3.43,3.43,0,0,0-4,1.44,7.5,7.5,0,0,0-1.12,5.18,3.55,3.55,0,0,0,.07.43,6.85,6.85,0,0,1-.31-6.05,6.08,6.08,0,0,1,2.43-2.71,4.66,4.66,0,0,1,3.8-.2C675.25,307.63,676,311.57,676,313.27Z" transform="translate(-601.1 -280.32)"/>
    <path class="cls-1" d="M743.34,347.35a3.35,3.35,0,0,0-2.72-1.37H728.37V325.57H706.74v10.37H695.83V325.57H668.46v10.37H657.54V325.57H635.93v26.61l6.78,10.31c.22,4.18,1.24,23.52,2.12,37.2a19.67,19.67,0,0,0,2.51,9.2l-15.5,2.46s20.2,2.62,25.5,2.49h48.27c3.17,0,12.81,0,13.85-13,.34-4.29.65-8.94.92-13.49h9.55a3.37,3.37,0,0,0,3.22-2.37l10.7-34.59A3.38,3.38,0,0,0,743.34,347.35Zm-23.11,6.29-10.17,1.55,8.32,1.27-1.58,2.4H648.92l-.05-1.22,20.21-2.44-20.38-1.53-.07-1.7h72.72Zm-45.77-11.69V331.57h15.38v10.37h22.91V331.57h9.62v2.61l-3.55.81,3.55.81v5.57l-3.55.81,3.55.81v3.6H644l-.12-4.22,5.7-1.63-5.8-1.66-.07-2.42,5.87-1.68-6-1.71-.05-1.72h8v10.37Zm31.16,65.89H659.52v-.16l23.8-2.63-24.18-2.67-.08-1.08,23.54-2.67-23.93-2.71-.06-.77,24-2.72-24.38-2.76,0-.67,24.42-2.77-24.83-2.81,0-.64L682.59,380l-25.27-2.79,0-.69,25.32-2.72-25.71-2.76-.09-1.23,25.8-2.77-26.2-2.82v0h59.14c0,.66-.06,1.41-.09,2.26L703,368.23,715.28,370q0,1.11-.11,2.32L703,374l12,1.71q-.06,1.17-.12,2.4L703,379.84l11.67,1.67q-.07,1.23-.14,2.49L703,385.65l11.34,1.62q-.07,1.15-.14,2.31L703,391.45l11,1.83q-.07,1.09-.15,2.17L703,397.26,713.59,399c0,.44-.07.87-.1,1.3s-.07.72-.12,1.06l-9,1.69,8.13,1.53C711.17,407.53,708.65,407.84,705.61,407.84Zm21.83-27.28h-6.68c.45-8.5.74-15.7.84-18.08l6.41-9.75h8Z" transform="translate(-601.1 -280.32)"/>
  </g>
  <g>
    <path class="cls-2" d="M614.08,438a18.66,18.66,0,0,1-2.6.2c-7.22,0-9.88-4.2-9.88-7.56,0-4.17,3.32-9.22,10.91-11.08l1,4.83c-4.64,1-6.51,3.27-6.51,5.63,0,1.94,1.85,3.52,4.77,3.52a20.52,20.52,0,0,0,2.11-.13Z" transform="translate(-601.1 -280.32)"/>
    <path class="cls-2" d="M615,436.18c.59-1.08,6-11.11,8-14.37h.42c2.44,3.87,7.68,12.89,8.52,14.12l-4,2.54c-.59-1-1.61-3-1.76-3.22l-5.87.33c-.11.2-.84,1.91-1.28,2.92Zm9.77-4c-.55-1.23-1.28-2.64-1.65-3.52-.46,1-1.14,2.51-1.65,3.69Z" transform="translate(-601.1 -280.32)"/>
    <path class="cls-2" d="M633.15,434.37c2.16,0,4.42-.35,4.42-1.38,0-.48-.4-.78-2-1.61-1.28-.65-2.95-1.68-2.95-3.69,0-2.64,3.23-5.23,8.54-5.55l.53,3.87c-2.73,0-4.11.2-4.11,1.11,0,.55.73.85,2,1.43,1.08.48,3,1.38,3,3.52,0,2.61-2.62,5.58-8.91,6.13Z" transform="translate(-601.1 -280.32)"/>
    <path class="cls-2" d="M647.34,437.76c0-.55,0-3.59,0-5.91v-5.4c-.81,0-3.67.1-4.29.13v-3.95c.9.1,5.65.18,5.88.18h1.74c.37,0,4.75-.08,5.72-.18v3.95c-.37,0-4.07-.12-4.27-.12v5.73c0,2.21,0,5.15.07,5.58Z" transform="translate(-601.1 -280.32)"/>
    <path class="cls-2" d="M663.31,422.58c0,.5-.11,4.9-.11,7.59v3.75c.48,0,2.84,0,4.44-.1l0,4.17c-.59,0-7.55-.23-9.26-.23,0-1.13,0-5.71,0-6.21v-2.84c0-.35,0-5.71-.07-6.13Z" transform="translate(-601.1 -280.32)"/>
    <path class="cls-2" d="M679.3,438c-.81,0-8-.23-9.2-.23,0-1.13,0-5.71,0-6.21v-2.84c0-.35,0-5.5,0-6.13,1.25,0,8-.3,8.8-.38l.09,3.67c-.75,0-3.89.13-4.25.13v2.59c.4,0,2.71-.1,3.59-.2l0,3.57c-.53,0-3.19-.08-3.63-.08v2.31c.51,0,3.54,0,4.49-.05Z" transform="translate(-601.1 -280.32)"/>
    <path class="cls-2" d="M681.81,434.37c2.16,0,4.42-.35,4.42-1.38,0-.48-.4-.78-2-1.61-1.28-.65-2.95-1.68-2.95-3.69,0-2.64,3.23-5.23,8.54-5.55l.53,3.87c-2.73,0-4.11.2-4.11,1.11,0,.55.73.85,2,1.43,1.08.48,3,1.38,3,3.52,0,2.61-2.62,5.58-8.91,6.13Z" transform="translate(-601.1 -280.32)"/>
  </g>
  <g>
    <path class="cls-2" d="M703.63,437.94a14.85,14.85,0,0,1-2.51.18c-6.82,0-8.49-4.27-8.49-6.33,0-3.62,3-8,9.83-9.35l.31,1.91c-4.36.6-8.1,3.37-8.1,7.09,0,2.51,1.87,4.88,6.65,4.88a9,9,0,0,0,2.11-.25Z" transform="translate(-601.1 -280.32)"/>
    <path class="cls-2" d="M705.13,431c0-4.75,3.06-8.59,7.9-8.59,3.87,0,6.71,2.69,6.71,7.29,0,3.34-2.07,8.37-7.83,8.37C707.53,438.11,705.13,434.82,705.13,431Zm12.56-1.21c0-3.82-2.33-5.73-5-5.73-3.5,0-5.59,3-5.59,6.61,0,3.19,1.87,5.73,4.93,5.73S717.69,434.07,717.69,429.84Z" transform="translate(-601.1 -280.32)"/>
    <path class="cls-2" d="M723.48,437.76c.18-1.13.18-5.71.18-6.21v-2.84c0-.35,0-5.5-.09-5.91.51,0,5.52-.23,6.67-.33l.09,1.81-4.75.1v5.23c.37,0,3.21-.13,4.38-.2l.07,1.78-4.45-.08v2c0,.33,0,4.37.07,4.67Z" transform="translate(-601.1 -280.32)"/>
    <path class="cls-2" d="M734.37,437.76c.18-1.13.18-5.71.18-6.21v-2.84c0-.35,0-5.5-.09-5.91.51,0,5.52-.23,6.67-.33l.09,1.81-4.75.1v5.23c.37,0,3.21-.13,4.38-.2l.07,1.78-4.45-.08v2c0,.33,0,4.37.07,4.67Z" transform="translate(-601.1 -280.32)"/>
    <path class="cls-2" d="M752.45,438c-.66,0-6.69-.23-7.08-.23.07-1.13.07-5.71.07-6.21v-2.84c0-.35,0-5.5-.07-5.91.48,0,5.7-.33,6.69-.4l.09,1.81c-.86,0-4.47.1-4.8.1v5.23c.37,0,2.93-.1,4.14-.23l.07,1.83c-.66,0-3.76-.08-4.2-.08v5.08c.48,0,3.17,0,5-.08Z" transform="translate(-601.1 -280.32)"/>
    <path class="cls-2" d="M764.07,438c-.66,0-6.69-.23-7.08-.23.07-1.13.07-5.71.07-6.21v-2.84c0-.35,0-5.5-.07-5.91.48,0,5.7-.33,6.69-.4l.09,1.81c-.86,0-4.47.1-4.8.1v5.23c.37,0,2.93-.1,4.14-.23l.07,1.83c-.66,0-3.76-.08-4.2-.08v5.08c.48,0,3.17,0,5-.08Z" transform="translate(-601.1 -280.32)"/>
  </g>
</svg>
