<svg id="Layer_1" data-name="Layer 1" xmlns="http://www.w3.org/2000/svg" viewBox="0 0 112.16 133.52">
  <defs>
    <style>
      .cls-1 {
        fill: #fff;
      }
    </style>
  </defs>
  <title>Untitled-2</title>
  <g>
    <path class="cls-1" d="M691.48,349.57a15,15,0,0,1-3.21,10.51c4-9.25-1.07-14.38-2.3-18.23-2.11-7.42,2.35-10.52,2.35-10.52-.07.18-1.78,2.62-.67,7.72C688.14,341.33,691.3,346.17,691.48,349.57Z" transform="translate(-626.84 -317.32)"/>
    <path class="cls-1" d="M680.3,343.91a14.47,14.47,0,0,1,1.16,7.67,13.72,13.72,0,0,1-4,8.49,17.21,17.21,0,0,0,2.31-8.61,13.36,13.36,0,0,0-1.67-6.5c-1.06-2.05-6.4-9.18-7.63-11.46a15.52,15.52,0,0,1-2.09-7.44,12.26,12.26,0,0,1,3.35-8.75,12.57,12.57,0,0,0-1.63,8.67,14.69,14.69,0,0,0,2.5,6.27C673.85,334.24,679.27,341.48,680.3,343.91Z" transform="translate(-626.84 -317.32)"/>
    <path class="cls-1" d="M671,350.27a15.48,15.48,0,0,1-4.2,9.81,26.19,26.19,0,0,0,1.85-5.48c1-4.72.31-8.11-2.62-9.26a3.43,3.43,0,0,0-4,1.44,7.5,7.5,0,0,0-1.12,5.18,3.55,3.55,0,0,0,.07.43,6.85,6.85,0,0,1-.31-6.05,6.08,6.08,0,0,1,2.43-2.71,4.66,4.66,0,0,1,3.8-.2C670.25,344.63,671,348.57,671,350.27Z" transform="translate(-626.84 -317.32)"/>
    <path class="cls-1" d="M738.34,384.35a3.35,3.35,0,0,0-2.72-1.37H723.37V362.57H701.74v10.37H690.83V362.57H663.46v10.37H652.54V362.57H630.93v26.61l6.78,10.31c.22,4.18,1.24,23.52,2.12,37.2a19.67,19.67,0,0,0,2.51,9.2l-15.5,2.46s20.2,2.62,25.5,2.49h48.27c3.17,0,12.81,0,13.85-13,.34-4.29.65-8.94.92-13.49h9.55a3.37,3.37,0,0,0,3.22-2.37l10.7-34.59A3.38,3.38,0,0,0,738.34,384.35Zm-23.11,6.29-10.17,1.55,8.32,1.27-1.58,2.4H643.92l-.05-1.22,20.21-2.44-20.38-1.53-.07-1.7h72.72Zm-45.77-11.69V368.57h15.38v10.37h22.91V368.57h9.62v2.61l-3.55.81,3.55.81v5.57l-3.55.81,3.55.81v3.6H639l-.12-4.22,5.7-1.63-5.8-1.66-.07-2.42,5.87-1.68-6-1.71-.05-1.72h8v10.37Zm31.16,65.89H654.52v-.16l23.8-2.63-24.18-2.67-.08-1.08,23.54-2.67-23.93-2.71-.06-.77,24-2.72-24.38-2.76,0-.67,24.42-2.77-24.83-2.81,0-.64L677.59,417l-25.27-2.79,0-.69,25.32-2.72-25.71-2.76-.09-1.23,25.8-2.77-26.2-2.82v0h59.14c0,.66-.06,1.41-.09,2.26L698,405.23,710.28,407q0,1.11-.11,2.32L698,411l12,1.71q-.06,1.17-.12,2.4L698,416.84l11.67,1.67q-.07,1.23-.14,2.49L698,422.65l11.34,1.62q-.07,1.15-.14,2.31L698,428.45l11,1.83q-.07,1.09-.15,2.17L698,434.26,708.59,436c0,.44-.07.87-.1,1.3s-.07.72-.12,1.06l-9,1.69,8.13,1.53C706.17,444.53,703.65,444.84,700.61,444.84Zm21.83-27.28h-6.68c.45-8.5.74-15.7.84-18.08l6.41-9.75h8Z" transform="translate(-626.84 -317.32)"/>
  </g>
</svg>
